<?xml version="1.0" encoding="UTF-8"?>
<!DOCTYPE svg PUBLIC "-//W3C//DTD SVG 1.1//EN" "http://www.w3.org/Graphics/SVG/1.1/DTD/svg11.dtd">
<!-- Creator: CorelDRAW X8 -->
<svg xmlns="http://www.w3.org/2000/svg" xml:space="preserve" width="195mm" height="85mm" version="1.1" style="shape-rendering:geometricPrecision; text-rendering:geometricPrecision; image-rendering:optimizeQuality; fill-rule:evenodd; clip-rule:evenodd"
viewBox="0 0 195000 85000"
 xmlns:xlink="http://www.w3.org/1999/xlink">
 <defs>
  <style type="text/css">
   <![CDATA[
    .fil2 {fill:black}
    .fil3 {fill:#1A1A1A}
    .fil1 {fill:#333333}
    .fil4 {fill:gray}
    .fil5 {fill:#CCCCCC}
    .fil0 {fill:#E6E6E6}
    .fil6 {fill:white}
   ]]>
  </style>
 </defs>
 <g id="Capa_x0020_1">
  <metadata id="CorelCorpID_0Corel-Layer"/>
  <polygon class="fil0" points="39712,75602 39735,72031 155689,72031 155689,75602 "/>
  <rect class="fil1" x="84751" y="68191" width="25516" height="7411" rx="3109" ry="3195"/>
  <circle class="fil2" cx="166790" cy="6399" r="5000"/>
  <circle class="fil2" cx="189356" cy="25518" r="5000"/>
  <circle class="fil2" cx="189109" cy="57907" r="5000"/>
  <circle class="fil2" cx="166678" cy="77145" r="5000"/>
  <circle class="fil2" cx="28118" cy="77146" r="5000"/>
  <circle class="fil2" cx="5715" cy="57954" r="5000"/>
  <circle class="fil2" cx="6009" cy="25524" r="5000"/>
  <circle class="fil2" cx="28423" cy="6323" r="5000"/>
  <polygon class="fil2" points="30075,72978 26715,72975 26705,68011 32360,62502 49850,62499 49850,65856 34361,65858 30079,69765 "/>
  <polygon class="fil2" points="10100,56149 10100,59450 18538,59449 28396,49478 50724,49478 50726,46503 26263,46502 16419,56150 "/>
  <polygon class="fil2" points="17042,27186 10096,27190 10101,24012 18567,24010 28444,33568 50785,33570 50783,36819 26748,36819 "/>
  <polygon class="fil2" points="26827,15303 26828,10783 30040,10783 30041,13654 34152,17682 49611,17683 49611,20686 32307,20686 "/>
  <polygon class="fil2" points="164780,10466 168074,10468 168084,15432 162539,20941 145390,20944 145390,17588 160577,17585 164776,13678 "/>
  <polygon class="fil2" points="184689,27294 184689,23993 176527,23995 166991,33965 145392,33965 145390,36940 169054,36941 178576,27293 "/>
  <polygon class="fil2" points="177984,56257 184693,56254 184689,59431 176510,59433 166970,49875 145389,49874 145390,46625 168608,46624 "/>
  <polygon class="fil2" points="167962,68140 167962,72660 164779,72661 164778,69790 160705,65761 145390,65761 145390,62757 162533,62757 "/>
  <rect class="fil3" x="49515" y="11347" width="96241" height="60684" rx="3052" ry="3346"/>
  <rect class="fil4" x="55739" y="17570" width="83470" height="48159" rx="2647" ry="2656"/>
  <path class="fil5" d="M48696 81892c-7785,371 -8977,-3465 -8984,-6286l116001 -4c-131,5612 -4311,6306 -11632,6312l-95385 -22z"/>
  <circle class="fil6" cx="166789" cy="6343" r="1594"/>
  <circle class="fil6" cx="189354" cy="25462" r="1594"/>
  <circle class="fil6" cx="189108" cy="57851" r="1594"/>
  <circle class="fil6" cx="166677" cy="77089" r="1594"/>
  <circle class="fil6" cx="28116" cy="77202" r="1594"/>
  <circle class="fil6" cx="5714" cy="58010" r="1594"/>
  <circle class="fil6" cx="5922" cy="25417" r="1594"/>
  <circle class="fil6" cx="28422" cy="6379" r="1594"/>
  <path class="fil0" d="M90982 51654c-3170,-12 -5328,-1920 -5329,-5075l-4 -8258c-2,-5074 3694,-9322 8458,-10773 1750,-534 6047,-522 7837,165 4321,1660 7951,6378 7952,11052l2 7548c0,3022 -2521,5414 -5496,5341l-8 5323c-1,968 115,922 -514,1507l-954 887c-255,217 -187,187 -534,187l-9321 1c-546,0 -535,59 -864,-283l-646 -661c-132,-135 -269,-265 -397,-405 -204,-223 -182,-237 -182,-605l0 -736 0 -5215zm-157 -16018l3996 1137c788,3345 -2053,4669 -3815,3689 -1685,-937 -1968,-3597 -181,-4826zm13647 -13l-3996 1138c-787,3344 2053,4668 3816,3688 1684,-937 1968,-3596 180,-4826zm-4947 13194l-3455 0c-1192,14 -1201,71 -634,-1004l1689 -3151c768,-1457 596,-1519 1365,115l1354 2680c680,1345 680,1374 -319,1360zm-3369 10742l-2638 0 0 -5422 2638 0 0 5422zm5523 0l-2639 0 0 -5422 2639 0 0 5422z"/>
 </g>
</svg>
